<svg width="12" height="14" viewBox="0 0 12 14" fill="none"
    xmlns="http://www.w3.org/2000/svg">
    <path d="M8.56898 13.4256C8.56306 13.3763 8.56056 13.3266 8.5615 13.277C8.5534 13.2617 8.5483 13.2448 8.54653 13.2273V11.0941C8.54653 10.4222 8.32991 9.84857 7.89666 9.3744C9.05513 9.15371 9.92161 8.68281 10.4956 7.96065C11.0696 7.23847 11.3571 6.36444 11.3571 5.33907C11.3571 4.37981 11.0751 3.54729 10.5106 2.84206C10.7122 2.13627 10.6768 1.39224 10.4053 0.609434C10.1228 0.587571 9.81581 0.640028 9.4834 0.766756C9.15097 0.893484 8.9044 1.01203 8.74269 1.12182C8.58196 1.23217 8.43571 1.33707 8.30494 1.43648C7.72048 1.26004 7.0681 1.17155 6.34837 1.17155C5.62761 1.17155 4.98075 1.26004 4.40626 1.43648C4.29545 1.348 4.16668 1.25185 4.02094 1.14696C3.87467 1.04207 3.62062 0.915346 3.25777 0.766756C2.89539 0.61762 2.56798 0.554248 2.27547 0.576656C1.99347 1.3704 1.96352 2.12534 2.18513 2.84204C1.63111 3.54784 1.35409 4.37981 1.35409 5.33906C1.35409 6.36442 1.6361 7.23574 2.20012 7.9519C2.76413 8.66862 3.63061 9.14277 4.79906 9.3744C4.49994 9.68864 4.2902 10.0908 4.19512 10.5325C3.33862 10.7636 2.73916 10.5981 2.39676 10.0354C1.76187 9.0215 1.19286 8.65769 0.689252 8.94449C0.618385 9.0215 0.628856 9.10126 0.719201 9.1843C0.810044 9.26679 0.945795 9.37713 1.12748 9.5148C1.30865 9.65301 1.44444 9.80433 1.53526 9.96984C1.54525 9.9917 1.57319 10.072 1.61863 10.2097C1.66202 10.3426 1.70728 10.4748 1.75439 10.6063C1.79932 10.733 1.88516 10.8739 2.01144 11.028C2.13721 11.1826 2.28347 11.312 2.44968 11.4169C2.61589 11.5213 2.84498 11.5988 3.13697 11.6486C3.42897 11.6977 3.76138 11.7004 4.13422 11.6567V13.3185C4.13422 13.3349 4.13173 13.3622 4.12674 13.4015C4.12176 13.4398 8.56898 13.4256 8.56898 13.4256Z" fill="white" style="fill:white;fill-opacity:1;"/>
</svg>
