<svg width="60" height="60" viewBox="0 0 60 60" fill="none"
    xmlns="http://www.w3.org/2000/svg">
    <path d="M55.4996 44.0837L35.0035 8.48922C34.4913 7.61717 33.7601 6.8941 32.8824 6.3917C32.0047 5.8893 31.0109 5.625 29.9996 5.625C28.9883 5.625 27.9945 5.8893 27.1168 6.3917C26.239 6.8941 25.5079 7.61717 24.9957 8.48922L4.49958 44.0837C4.00678 44.9272 3.74707 45.8865 3.74707 46.8634C3.74707 47.8403 4.00678 48.7996 4.49958 49.6431C5.0052 50.5204 5.73514 51.2474 6.61449 51.7495C7.49385 52.2516 8.49095 52.5107 9.50349 52.5002H50.4957C51.5074 52.5098 52.5036 52.2504 53.382 51.7483C54.2605 51.2463 54.9897 50.5197 55.4949 49.6431C55.9884 48.8001 56.2489 47.841 56.2498 46.8641C56.2506 45.8872 55.9917 44.9276 55.4996 44.0837ZM28.1246 24.3752C28.1246 23.8779 28.3221 23.401 28.6738 23.0493C29.0254 22.6977 29.5023 22.5002 29.9996 22.5002C30.4969 22.5002 30.9738 22.6977 31.3254 23.0493C31.677 23.401 31.8746 23.8779 31.8746 24.3752V33.7502C31.8746 34.2474 31.677 34.7243 31.3254 35.076C30.9738 35.4276 30.4969 35.6252 29.9996 35.6252C29.5023 35.6252 29.0254 35.4276 28.6738 35.076C28.3221 34.7243 28.1246 34.2474 28.1246 33.7502V24.3752ZM29.9996 45.0002C29.4433 45.0002 28.8996 44.8352 28.437 44.5262C27.9745 44.2171 27.614 43.7779 27.4012 43.264C27.1883 42.75 27.1326 42.1845 27.2411 41.639C27.3496 41.0934 27.6175 40.5923 28.0108 40.1989C28.4042 39.8056 28.9053 39.5377 29.4509 39.4292C29.9965 39.3207 30.562 39.3764 31.0759 39.5892C31.5898 39.8021 32.0291 40.1626 32.3381 40.6251C32.6471 41.0876 32.8121 41.6314 32.8121 42.1877C32.8121 42.9336 32.5158 43.6489 31.9883 44.1764C31.4609 44.7038 30.7455 45.0002 29.9996 45.0002Z" fill="white" style="fill:white;fill-opacity:1;"/>
</svg>
