<svg width="21" height="20" viewBox="0 0 21 20" fill="none"
    xmlns="http://www.w3.org/2000/svg">
    <path d="M17.8282 13.7453C17.3946 12.9984 16.7501 10.8852 16.7501 8.125C16.7501 6.4674 16.0916 4.87769 14.9195 3.70558C13.7474 2.53348 12.1577 1.875 10.5001 1.875C8.84247 1.875 7.25276 2.53348 6.08065 3.70558C4.90855 4.87769 4.25007 6.4674 4.25007 8.125C4.25007 10.8859 3.60476 12.9984 3.17116 13.7453C3.06044 13.9352 3.00174 14.1509 3.00098 14.3707C3.00023 14.5905 3.05745 14.8066 3.16687 14.9973C3.27629 15.1879 3.43404 15.3463 3.62422 15.4565C3.81439 15.5667 4.03027 15.6248 4.25007 15.625H7.43835C7.58255 16.3306 7.96603 16.9647 8.52392 17.4201C9.08182 17.8756 9.7799 18.1243 10.5001 18.1243C11.2202 18.1243 11.9183 17.8756 12.4762 17.4201C13.0341 16.9647 13.4176 16.3306 13.5618 15.625H16.7501C16.9698 15.6247 17.1856 15.5665 17.3757 15.4562C17.5657 15.346 17.7234 15.1875 17.8327 14.9969C17.942 14.8063 17.9992 14.5903 17.9984 14.3705C17.9976 14.1508 17.9389 13.9351 17.8282 13.7453ZM10.5001 16.875C10.1124 16.8749 9.73435 16.7546 9.41788 16.5308C9.10141 16.3069 8.8621 15.9905 8.73288 15.625H12.2673C12.138 15.9905 11.8987 16.3069 11.5823 16.5308C11.2658 16.7546 10.8877 16.8749 10.5001 16.875Z" fill="white" style="fill:white;fill-opacity:1;"/>
</svg>
