<svg width="16" height="16" viewBox="0 0 16 16" fill="none"
    xmlns="http://www.w3.org/2000/svg">
    <path d="M14.25 0.1875H1.75C1.3356 0.1875 0.938171 0.35212 0.645146 0.645146C0.35212 0.938171 0.1875 1.3356 0.1875 1.75V14.25C0.1875 14.6644 0.35212 15.0618 0.645146 15.3549C0.938171 15.6479 1.3356 15.8125 1.75 15.8125H14.25C14.6644 15.8125 15.0618 15.6479 15.3549 15.3549C15.6479 15.0618 15.8125 14.6644 15.8125 14.25V1.75C15.8125 1.3356 15.6479 0.938171 15.3549 0.645146C15.0618 0.35212 14.6644 0.1875 14.25 0.1875ZM13.9375 13.9375H2.0625V2.0625H13.9375V13.9375ZM4.83672 11.1633C4.74932 11.0762 4.67997 10.9727 4.63265 10.8587C4.58534 10.7448 4.56098 10.6226 4.56098 10.4992C4.56098 10.3758 4.58534 10.2537 4.63265 10.1397C4.67997 10.0257 4.74932 9.92225 4.83672 9.83516L8.23438 6.4375H6.75C6.50136 6.4375 6.2629 6.33873 6.08709 6.16291C5.91127 5.9871 5.8125 5.74864 5.8125 5.5C5.8125 5.25136 5.91127 5.0129 6.08709 4.83709C6.2629 4.66127 6.50136 4.5625 6.75 4.5625H10.5C10.7486 4.5625 10.9871 4.66127 11.1629 4.83709C11.3387 5.0129 11.4375 5.25136 11.4375 5.5V9.25C11.4375 9.49864 11.3387 9.7371 11.1629 9.91291C10.9871 10.0887 10.7486 10.1875 10.5 10.1875C10.2514 10.1875 10.0129 10.0887 9.83709 9.91291C9.66127 9.7371 9.5625 9.49864 9.5625 9.25V7.76562L6.16328 11.1656C6.07618 11.253 5.97269 11.3224 5.85874 11.3697C5.74478 11.417 5.62261 11.4414 5.49922 11.4414C5.37583 11.4414 5.25366 11.417 5.1397 11.3697C5.02575 11.3224 4.92225 11.253 4.83516 11.1656L4.83672 11.1633Z" fill="white" style="fill:white;fill-opacity:1;"/>
</svg>
