<svg width="16" height="16" viewBox="0 0 16 16" fill="none"
    xmlns="http://www.w3.org/2000/svg">
    <g opacity="0.5">
        <path d="M13 1.75H3C2.66848 1.75 2.35054 1.8817 2.11612 2.11612C1.8817 2.35054 1.75 2.66848 1.75 3V13C1.75 13.3315 1.8817 13.6495 2.11612 13.8839C2.35054 14.1183 2.66848 14.25 3 14.25H13C13.3315 14.25 13.6495 14.1183 13.8839 13.8839C14.1183 13.6495 14.25 13.3315 14.25 13V3C14.25 2.66848 14.1183 2.35054 13.8839 2.11612C13.6495 1.8817 13.3315 1.75 13 1.75ZM12.75 12.75H3.25V3.25H12.75V12.75ZM5.46938 10.5306C5.39946 10.4609 5.34398 10.3782 5.30612 10.287C5.26827 10.1958 5.24878 10.0981 5.24878 9.99938C5.24878 9.90067 5.26827 9.80293 5.30612 9.71176C5.34398 9.6206 5.39946 9.5378 5.46938 9.46813L8.1875 6.75H7C6.80109 6.75 6.61032 6.67098 6.46967 6.53033C6.32902 6.38968 6.25 6.19891 6.25 6C6.25 5.80109 6.32902 5.61032 6.46967 5.46967C6.61032 5.32902 6.80109 5.25 7 5.25H10C10.1989 5.25 10.3897 5.32902 10.5303 5.46967C10.671 5.61032 10.75 5.80109 10.75 6V9C10.75 9.19891 10.671 9.38968 10.5303 9.53033C10.3897 9.67098 10.1989 9.75 10 9.75C9.80109 9.75 9.61032 9.67098 9.46967 9.53033C9.32902 9.38968 9.25 9.19891 9.25 9V7.8125L6.53062 10.5325C6.46095 10.6024 6.37815 10.6579 6.28699 10.6958C6.19583 10.7336 6.09809 10.7531 5.99937 10.7531C5.90066 10.7531 5.80292 10.7336 5.71176 10.6958C5.6206 10.6579 5.5378 10.6024 5.46812 10.5325L5.46938 10.5306Z" fill="white" style="fill:white;fill-opacity:1;"/>
    </g>
</svg>
