<svg width="21" height="20" viewBox="0 0 21 20" fill="none"
    xmlns="http://www.w3.org/2000/svg">
    <path d="M9.5625 10V3.75C9.5625 3.50136 9.66127 3.2629 9.83709 3.08709C10.0129 2.91127 10.2514 2.8125 10.5 2.8125C10.7486 2.8125 10.9871 2.91127 11.1629 3.08709C11.3387 3.2629 11.4375 3.50136 11.4375 3.75V10C11.4375 10.2486 11.3387 10.4871 11.1629 10.6629C10.9871 10.8387 10.7486 10.9375 10.5 10.9375C10.2514 10.9375 10.0129 10.8387 9.83709 10.6629C9.66127 10.4871 9.5625 10.2486 9.5625 10ZM14.7617 3.59375C14.5535 3.46557 14.3035 3.42378 14.065 3.47728C13.8265 3.53079 13.6182 3.67535 13.4848 3.88017C13.3513 4.08498 13.3031 4.33383 13.3504 4.57367C13.3978 4.81351 13.537 5.02536 13.7383 5.16406C15.4539 6.27891 16.4375 8.04688 16.4375 10C16.4375 11.5747 15.8119 13.0849 14.6984 14.1984C13.5849 15.3119 12.0747 15.9375 10.5 15.9375C8.92528 15.9375 7.41505 15.3119 6.30155 14.1984C5.18806 13.0849 4.5625 11.5747 4.5625 10C4.5625 8.04688 5.54609 6.27891 7.26172 5.16016C7.45232 5.01731 7.5814 4.80726 7.62274 4.57268C7.66408 4.33811 7.61459 4.09659 7.4843 3.89718C7.35402 3.69778 7.15272 3.55544 6.92129 3.49909C6.68986 3.44273 6.44566 3.47657 6.23828 3.59375C3.98125 5.06094 2.6875 7.39766 2.6875 10C2.6875 12.072 3.5106 14.0591 4.97573 15.5243C6.44086 16.9894 8.428 17.8125 10.5 17.8125C12.572 17.8125 14.5591 16.9894 16.0243 15.5243C17.4894 14.0591 18.3125 12.072 18.3125 10C18.3125 7.39766 17.0188 5.06094 14.7617 3.59375Z" fill="white" style="fill:white;fill-opacity:1;"/>
</svg>
