<svg width="20" height="20" viewBox="0 0 20 20" fill="none"
    xmlns="http://www.w3.org/2000/svg">
    <path d="M18.589 8.37544C18.5716 8.28743 18.5354 8.2042 18.483 8.1314C18.4305 8.05861 18.363 7.99795 18.2851 7.95357L15.9546 6.62544L15.9452 3.99888C15.9449 3.90842 15.925 3.8191 15.8868 3.73709C15.8487 3.65508 15.7932 3.58234 15.7241 3.52388C14.8788 2.8088 13.9053 2.2608 12.8554 1.90903C12.7727 1.88105 12.6851 1.87069 12.5981 1.87863C12.5112 1.88657 12.4269 1.91263 12.3507 1.95513L9.9999 3.26919L7.64678 1.95278C7.57049 1.91005 7.48609 1.88379 7.39902 1.87572C7.31195 1.86764 7.22416 1.87793 7.14131 1.90591C6.09207 2.25994 5.11962 2.81005 4.27569 3.527C4.20675 3.58538 4.15129 3.658 4.11313 3.73986C4.07496 3.82173 4.05499 3.9109 4.05459 4.00122L4.04287 6.63013L1.7124 7.95825C1.63444 8.00264 1.56694 8.06329 1.5145 8.13609C1.46206 8.20888 1.42591 8.29212 1.4085 8.38013C1.19521 9.45191 1.19521 10.5552 1.4085 11.627C1.42591 11.715 1.46206 11.7982 1.5145 11.871C1.56694 11.9438 1.63444 12.0045 1.7124 12.0489L4.04287 13.377L4.05225 16.0043C4.05253 16.0948 4.07245 16.1841 4.11062 16.2661C4.14879 16.3481 4.20431 16.4209 4.27334 16.4793C5.11871 17.1944 6.09221 17.7424 7.14209 18.0942C7.22477 18.1222 7.31239 18.1325 7.39932 18.1246C7.48624 18.1167 7.57054 18.0906 7.64678 18.0481L9.9999 16.7301L12.353 18.0465C12.4462 18.0984 12.5511 18.1253 12.6577 18.1247C12.726 18.1246 12.7938 18.1136 12.8585 18.0918C13.9075 17.738 14.8799 17.1884 15.7241 16.4723C15.7931 16.4139 15.8485 16.3413 15.8867 16.2595C15.9249 16.1776 15.9448 16.0884 15.9452 15.9981L15.9569 13.3692L18.2874 12.0411C18.3654 11.9967 18.4329 11.936 18.4853 11.8632C18.5378 11.7904 18.5739 11.7072 18.5913 11.6192C18.8034 10.5483 18.8026 9.44606 18.589 8.37544ZM9.9999 13.1247C9.38184 13.1247 8.77765 12.9414 8.26375 12.598C7.74984 12.2546 7.3493 11.7666 7.11278 11.1955C6.87626 10.6245 6.81437 9.99619 6.93495 9.39C7.05553 8.78381 7.35316 8.22699 7.7902 7.78995C8.22723 7.35291 8.78406 7.05528 9.39025 6.93471C9.99644 6.81413 10.6248 6.87601 11.1958 7.11254C11.7668 7.34906 12.2549 7.7496 12.5982 8.2635C12.9416 8.77741 13.1249 9.38159 13.1249 9.99966C13.1249 10.8285 12.7957 11.6233 12.2096 12.2094C11.6236 12.7954 10.8287 13.1247 9.9999 13.1247Z" fill="white" style="fill:white;fill-opacity:1;"/>
</svg>
