<svg width="20" height="20" viewBox="0 0 20 20" fill="none"
    xmlns="http://www.w3.org/2000/svg">
    <path d="M17.3313 15.0007C17.3198 15.0206 17.3036 15.0375 17.2842 15.0499C17.2648 15.0623 17.2427 15.0699 17.2198 15.072C17.1968 15.0742 17.1737 15.0708 17.1524 15.0622C17.131 15.0536 17.112 15.04 17.097 15.0226L6.50555 3.37495C6.47577 3.34138 6.45358 3.3018 6.44047 3.25889C6.42736 3.21598 6.42364 3.17075 6.42957 3.12627C6.4355 3.0818 6.45094 3.03912 6.47483 3.00115C6.49873 2.96317 6.53052 2.93079 6.56805 2.9062C7.61197 2.21575 8.84004 1.85659 10.0915 1.87573C13.5157 1.92729 16.2345 4.77416 16.2501 8.1976C16.261 10.9226 16.8993 13.0054 17.3298 13.7445C17.4417 13.9348 17.5009 14.1516 17.5012 14.3724C17.5015 14.5932 17.4428 14.8101 17.3313 15.0007ZM12.5001 16.8757H7.51727C7.35648 16.8745 7.20112 16.9339 7.08213 17.042C6.96313 17.1502 6.88921 17.2991 6.87508 17.4593C6.8694 17.5448 6.88136 17.6306 6.91022 17.7112C6.93908 17.7919 6.98421 17.8658 7.04283 17.9283C7.10144 17.9908 7.17228 18.0406 7.25093 18.0745C7.32959 18.1085 7.4144 18.1259 7.50008 18.1257H12.4798C12.6411 18.1277 12.7972 18.0687 12.9169 17.9605C13.0365 17.8523 13.1109 17.7028 13.1251 17.5421C13.1308 17.4566 13.1188 17.3709 13.0899 17.2902C13.0611 17.2095 13.0159 17.1357 12.9573 17.0732C12.8987 17.0107 12.8279 16.9609 12.7492 16.9269C12.6706 16.893 12.5858 16.8755 12.5001 16.8757ZM4.20633 2.70541C4.15144 2.64354 4.08482 2.59318 4.01033 2.55725C3.93583 2.52132 3.85495 2.50053 3.77236 2.49608C3.68978 2.49164 3.60713 2.50363 3.52921 2.53137C3.45129 2.5591 3.37965 2.60202 3.31845 2.65765C3.25724 2.71327 3.20768 2.78049 3.17264 2.85541C3.1376 2.93033 3.11779 3.01146 3.11433 3.09409C3.11088 3.17673 3.12386 3.25922 3.15253 3.3368C3.18119 3.41438 3.22497 3.4855 3.28133 3.54604L4.59305 4.98901C4.03661 5.94065 3.74375 7.02335 3.74461 8.12573C3.74461 10.8671 3.10789 12.9695 2.6743 13.7296C2.55896 13.9277 2.49878 14.153 2.50002 14.3822C2.50126 14.6113 2.56386 14.836 2.68133 15.0328C2.79194 15.2149 2.9479 15.3653 3.13398 15.4693C3.32007 15.5732 3.52991 15.6271 3.74305 15.6257H14.2673L15.7868 17.296C15.8983 17.4188 16.0539 17.4923 16.2196 17.5002C16.3852 17.5082 16.5472 17.4501 16.67 17.3386C16.7928 17.2271 16.8662 17.0715 16.8742 16.9058C16.8822 16.7402 16.8241 16.5782 16.7126 16.4554L4.20633 2.70541Z" fill="#979797" style="fill:#979797;fill:color(display-p3 0.5922 0.5922 0.5922);fill-opacity:1;"/>
</svg>
